<?xml version="1.0" encoding="UTF-8" standalone="no"?>
<!DOCTYPE svg PUBLIC "-//W3C//DTD SVG 1.1//EN"
"http://www.w3.org/Graphics/SVG/1.1/DTD/svg11.dtd">
<svg viewBox="0 0 909 1286" version="1.1" xmlns="http://www.w3.org/2000/svg" xmlns:xlink="http://www.w3.org/1999/xlink">
<defs>
<clipPath id="c0"><path d="M15.3,1134.7V30.6H893.7V1134.7Z"/></clipPath>
<clipPath id="c1"><path d="M15.3,1134.7V30.6H893.8V1134.7Z"/></clipPath>
<style type="text/css"><![CDATA[
.g0{
fill: #FFFFFF;
}
.g1{
fill: #42A873;
}
.g2{
}
.g3{
fill: none;
stroke: #A0A0A0;
stroke-width: 0.857;
stroke-linecap: square;
stroke-linejoin: bevel;
}
.g4{
fill: none;
stroke: #FFFFFF;
stroke-width: 0.857;
stroke-linecap: square;
stroke-linejoin: bevel;
}
.g5{
fill: none;
stroke: #696969;
stroke-width: 0.857;
stroke-linecap: square;
stroke-linejoin: bevel;
}
.g6{
fill: none;
stroke: #E3E3E3;
stroke-width: 0.857;
stroke-linecap: square;
stroke-linejoin: bevel;
}
.g7{
fill: none;
stroke: #000000;
stroke-width: 0.857;
stroke-linecap: square;
stroke-linejoin: miter;
}
]]></style>
</defs>
<g clip-path="url(#c1)">
<path clip-path="url(#c0)" fill-rule="evenodd" d="M15.3,30.6H893.7V1134.7H15.3V30.6Z" class="g0"/>
<path fill-rule="evenodd" d="M20.4,165.2H888.6v27.5H20.4V165.2Z" class="g1"/>
<path fill-rule="evenodd" d="M455.4,196.1h.8V411.5h-.8V196.1Z" class="g2"/>
<path fill-rule="evenodd" d="M21.3,415.7H887.7v6.1H21.3v-6.1Z" class="g1"/>
<path fill-rule="evenodd" d="M21.3,979.4H887.7v6H21.3v-6Z" class="g1"/>
<path fill-rule="evenodd" d="M21.3,1120.1H887.7v6H21.3v-6Z" class="g1"/>
<image clip-path="url(#c0)" preserveAspectRatio="none" x="24" y="54" width="133" height="92" xlink:href="img/1.jpg"/>
<path d="M507.7,342v-9.5m0,0h9.4" class="g3"/>
<path d="M507.7,342.8H518m0,0V332.5" class="g4"/>
<path d="M508.6,341.1v-7.7m0,0h7.7" class="g5"/>
<path d="M508.6,342h8.5m0,0v-8.6" class="g6"/>
<path fill-rule="evenodd" d="M509.4,334.2h7.7V342h-7.7v-7.8Z" class="g0"/>
<path d="M564.3,342v-9.5m0,0h9.5" class="g3"/>
<path d="M564.3,342.8h10.3m0,0V332.5" class="g4"/>
<path d="M565.2,341.1v-7.7m0,0h7.7" class="g5"/>
<path d="M565.2,342h8.6m0,0v-8.6" class="g6"/>
<path fill-rule="evenodd" d="M566,334.2h7.8V342H566v-7.8Z" class="g0"/>
<path d="M608.1,342v-9.5m0,0h9.4" class="g3"/>
<path d="M608.1,342.8h10.3m0,0V332.5" class="g4"/>
<path d="M608.9,341.1v-7.7m0,0h7.8" class="g5"/>
<path d="M608.9,342h8.6m0,0v-8.6" class="g6"/>
<path fill-rule="evenodd" d="M609.8,334.2h7.7V342h-7.7v-7.8Z" class="g0"/>
<path fill-rule="evenodd" d="M46.2,1027.8c0,1.2,-1,2.2,-2.2,2.2c-1.2,0,-2.1,-1,-2.1,-2.2c0,-1.1,.9,-2.1,2.1,-2.1c1.2,0,2.2,1,2.2,2.1Z" class="g2"/>
<path d="M46.2,1027.8c0,1.2,-1,2.2,-2.2,2.2c-1.2,0,-2.1,-1,-2.1,-2.2c0,-1.1,.9,-2.1,2.1,-2.1c1.2,0,2.2,1,2.2,2.1" class="g7"/>
<path fill-rule="evenodd" d="M46.2,1042.4c0,1.2,-1,2.2,-2.2,2.2c-1.2,0,-2.1,-1,-2.1,-2.2c0,-1.2,.9,-2.1,2.1,-2.1c1.2,0,2.2,.9,2.2,2.1Z" class="g2"/>
<path d="M46.2,1042.4c0,1.2,-1,2.2,-2.2,2.2c-1.2,0,-2.1,-1,-2.1,-2.2c0,-1.2,.9,-2.1,2.1,-2.1c1.2,0,2.2,.9,2.2,2.1" class="g7"/>
<path fill-rule="evenodd" d="M46.2,1086.2c0,1.2,-1,2.1,-2.2,2.1c-1.2,0,-2.1,-.9,-2.1,-2.1c0,-1.2,.9,-2.2,2.1,-2.2c1.2,0,2.2,1,2.2,2.2Z" class="g2"/>
<path d="M46.2,1086.2c0,1.2,-1,2.1,-2.2,2.1c-1.2,0,-2.1,-.9,-2.1,-2.1c0,-1.2,.9,-2.2,2.1,-2.2c1.2,0,2.2,1,2.2,2.2" class="g7"/>
</g>
<image preserveAspectRatio="none" x="408" y="59" width="95" height="94" xlink:href="img/2.jpg"/>
<image preserveAspectRatio="none" x="808" y="887" width="79" height="79" xlink:href="img/3.jpg"/>
</svg>